<svg xmlns="http://www.w3.org/2000/svg" viewBox="0 0 600 350">
    <circle cx="300" cy="50" r="20" fill="#000" />
    <circle cx="150" cy="120" r="20" fill="#000" />
    <circle cx="450" cy="120" r="20" fill="#000" />
    <circle cx="75" cy="190" r="20" fill="#000" />
    <circle cx="225" cy="190" r="20" fill="#000" />
    <circle cx="375" cy="190" r="20" fill="#000" />
    <circle cx="525" cy="190" r="20" fill="#000" />
    <circle cx="150" cy="260" r="20" fill="#000" />
    <circle cx="300" cy="260" r="20" fill="#000" />
    <circle cx="450" cy="260" r="20" fill="#000" />
    <line x1="300" y1="50" x2="150" y2="120" stroke="#000" stroke-width="2" />
    <line x1="300" y1="50" x2="450" y2="120" stroke="#000" stroke-width="2" />
    <line x1="150" y1="120" x2="75" y2="190" stroke="#000" stroke-width="2" />
    <line x1="150" y1="120" x2="225" y2="190" stroke="#000" stroke-width="2" />
    <line x1="450" y1="120" x2="375" y2="190" stroke="#000" stroke-width="2" />
    <line x1="450" y1="120" x2="525" y2="190" stroke="#000" stroke-width="2" />
    <line x1="150" y1="260" x2="300" y2="260" stroke="#000" stroke-width="2" />
    <line x1="300" y1="260" x2="450" y2="260" stroke="#000" stroke-width="2" />
    <line x1="300" y1="50" x2="150" y2="260" stroke="#000" stroke-width="2" />
    <line x1="300" y1="50" x2="300" y2="260" stroke="#000" stroke-width="2" />
    <line x1="300" y1="50" x2="450" y2="260" stroke="#000" stroke-width="2" />
    <text x="300" y="55" fill="#fff" font-size="14" text-anchor="middle">A</text>
    <text x="150" y="125" fill="#fff" font-size="14" text-anchor="middle">B</text>
    <text x="450" y="125" fill="#fff" font-size="14" text-anchor="middle">C</text>
    <text x="75" y="195" fill="#fff" font-size="14" text-anchor="middle">D</text>
    <text x="225" y="195" fill="#fff" font-size="14" text-anchor="middle">E</text>
    <text x="375" y="195" fill="#fff" font-size="14" text-anchor="middle">F</text>
    <text x="525" y="195" fill="#fff" font-size="14" text-anchor="middle">G</text>
    <text x="150" y="265" fill="#fff" font-size="14" text-anchor="middle">H</text>
    <text x="300" y="265" fill="#fff" font-size="14" text-anchor="middle">I</text>
</svg>