<svg xmlns="http://www.w3.org/2000/svg" viewBox="0 0 800 200">
  <!-- Nodos principales -->
  <circle cx="50" cy="100" r="20" fill="#000" />
  <circle cx="150" cy="100" r="20" fill="#000" />
  <circle cx="250" cy="100" r="20" fill="#000" />
  <circle cx="350" cy="100" r="20" fill="#000" />
  <circle cx="450" cy="100" r="20" fill="#000" />
  <circle cx="550" cy="100" r="20" fill="#000" />
  <circle cx="650" cy="100" r="20" fill="#000" />
  <circle cx="750" cy="100" r="20" fill="#000" />
  
  <!-- Líneas principales -->
  <line x1="50" y1="100" x2="150" y2="100" stroke="#000" stroke-width="2" />
  <line x1="150" y1="100" x2="250" y2="100" stroke="#000" stroke-width="2" />
  <line x1="250" y1="100" x2="350" y2="100" stroke="#000" stroke-width="2" />
  <line x1="350" y1="100" x2="450" y2="100" stroke="#000" stroke-width="2" />
  <line x1="450" y1="100" x2="550" y2="100" stroke="#000" stroke-width="2" />
  <line x1="550" y1="100" x2="650" y2="100" stroke="#000" stroke-width="2" />
  <line x1="650" y1="100" x2="750" y2="100" stroke="#000" stroke-width="2" />
  
  <!-- Texto -->
  <text x="50" y="140" fill="#000" font-size="14" text-anchor="middle">A</text>
  <text x="150" y="140" fill="#000" font-size="14" text-anchor="middle">B</text>
  <text x="250" y="140" fill="#000" font-size="14" text-anchor="middle">C</text>
  <text x="350" y="140" fill="#000" font-size="14" text-anchor="middle">D</text>
  <text x="450" y="140" fill="#000" font-size="14" text-anchor="middle">E</text>
  <text x="550" y="140" fill="#000" font-size="14" text-anchor="middle">F</text>
  <text x="650" y="140" fill="#000" font-size="14" text-anchor="middle">G</text>
  <text x="750" y="140" fill="#000" font-size="14" text-anchor="middle">H</text>
</svg>

